<svg version="1.2" xmlns="http://www.w3.org/2000/svg" viewBox="0 0 14 13" width="14" height="13">
	<title>menu</title>
	<style>
		.s0 { fill: #333333 } 
	</style>
	<g id="menu">
		<g id="right">
			<path id="-e-burger" class="s0" aria-label=""  d="m0.5 2.1c-0.1 0-0.3 0-0.4-0.1-0.1-0.1-0.1-0.2-0.1-0.4v-1.2c0-0.2 0-0.3 0.1-0.4 0.1-0.1 0.3-0.1 0.4-0.1h13c0.1 0 0.3 0 0.4 0.1 0.1 0.1 0.1 0.2 0.1 0.4v1.2c0 0.2 0 0.3-0.1 0.4-0.1 0.1-0.3 0.1-0.4 0.1zm0 5c-0.1 0-0.3 0-0.4-0.1-0.1-0.1-0.1-0.2-0.1-0.4v-1.2c0-0.2 0-0.3 0.1-0.4 0.1-0.1 0.3-0.1 0.4-0.1h13c0.1 0 0.3 0 0.4 0.1 0.1 0.1 0.1 0.2 0.1 0.4v1.2c0 0.2 0 0.3-0.1 0.4-0.1 0.1-0.3 0.1-0.4 0.1zm0 5c-0.1 0-0.3 0-0.4-0.1-0.1-0.1-0.1-0.2-0.1-0.4v-1.2c0-0.2 0-0.3 0.1-0.4 0.1-0.1 0.3-0.1 0.4-0.1h13c0.1 0 0.3 0 0.4 0.1 0.1 0.1 0.1 0.2 0.1 0.4v1.2c0 0.2 0 0.3-0.1 0.4-0.1 0.1-0.3 0.1-0.4 0.1z"/>
		</g>
	</g>
</svg>