<svg version="1.2" xmlns="http://www.w3.org/2000/svg" viewBox="0 0 380 16" width="380" height="16">
	<title>menu</title>
	<style>
		.s0 { fill: #ffffff } 
	</style>
	<g id="menu">
		<g id="top menu">
			<path id="-e-header-contact" class="s0" aria-label="     +1 123 456 789                        info@company.com"  d="m15.3-0.4c0.2 0 0.4 0.1 0.5 0.2 0.1 0.2 0.1 0.3 0.1 0.5 0 2.6-0.6 5.1-1.9 7.3-1.3 2.2-3.1 3.9-5.3 5.2-2.2 1.3-4.6 2-7.3 2-0.1 0-0.3 0-0.4-0.2-0.2-0.1-0.3-0.2-0.3-0.4l-0.7-3.2c-0.1-0.2-0.1-0.4 0-0.5 0.1-0.2 0.2-0.3 0.4-0.4l3.5-1.5c0.1 0 0.3-0.1 0.5 0 0.1 0 0.2 0.1 0.4 0.2l1.5 1.9c1.2-0.6 2.3-1.3 3.3-2.3 0.9-0.9 1.7-2 2.2-3.2l-1.8-1.6c-0.2-0.1-0.2-0.2-0.3-0.4 0-0.1 0-0.3 0-0.4l1.5-3.5c0.1-0.2 0.2-0.3 0.4-0.4 0.2-0.1 0.3-0.1 0.5-0.1zm30.2 5v2.9h2.7v1.2h-2.7v3.2h-1.3v-3.2h-2.8v-1.2h2.8v-2.9zm8.7-1.7v10h-1.3v-8.5l-2.5 1v-1.2l3.6-1.3zm12 0v10h-1.3v-8.5l-2.5 1v-1.2l3.6-1.3zm10.6 8.9v1.1h-6.5v-1l3.4-3.8q0.8-0.9 1.1-1.4 0.3-0.5 0.3-1.1 0-0.8-0.5-1.3-0.5-0.5-1.3-0.5-0.9 0-1.4 0.5-0.6 0.6-0.6 1.5h-1.2q0-1.3 0.8-2.2 0.9-0.8 2.4-0.8 1.4 0 2.2 0.7 0.8 0.7 0.8 1.9 0 1.5-1.9 3.5l-2.6 2.9zm3.5-3.5v-1h1q0.9-0.1 1.4-0.5 0.5-0.5 0.5-1.2 0-1.8-1.8-1.8-0.8 0-1.3 0.5-0.5 0.4-0.5 1.2h-1.2q0-1.2 0.8-1.9 0.9-0.8 2.2-0.8 1.4 0 2.2 0.7 0.8 0.8 0.8 2.1 0 0.6-0.4 1.2-0.4 0.6-1.1 0.9 0.8 0.3 1.2 0.9 0.5 0.6 0.5 1.5 0 1.3-0.9 2.1-0.9 0.8-2.3 0.8-1.4 0-2.2-0.8-0.9-0.7-0.9-2h1.3q0 0.8 0.5 1.3 0.5 0.5 1.3 0.5 1 0 1.4-0.5 0.5-0.5 0.5-1.4 0-0.9-0.5-1.3-0.5-0.5-1.5-0.5zm15.5-5.4v6.6h1.4v1h-1.4v2.4h-1.3v-2.4h-4.5v-0.7l4.4-6.9zm-1.4 2l-2.9 4.6h3.1v-4.9zm5.9 3.3l-1.1-0.3 0.6-5h5.1v1.2h-4.1l-0.3 2.7q0.8-0.4 1.7-0.4 1.3 0 2.1 0.9 0.8 0.9 0.8 2.4 0 1.5-0.8 2.4-0.8 0.9-2.3 0.9-1.3 0-2.2-0.7-0.8-0.7-0.9-2h1.2q0.1 0.8 0.6 1.3 0.5 0.4 1.3 0.4 0.9 0 1.4-0.6 0.5-0.6 0.5-1.7 0-1-0.6-1.6-0.5-0.6-1.4-0.6-0.8 0-1.3 0.4zm11.3-5.3h0.3v1.1h-0.3q-1.4 0-2.3 0.9-0.9 0.8-1 2.4 0.8-0.9 2.1-0.9 1.3 0 2.1 0.9 0.8 0.9 0.8 2.4 0 1.5-0.9 2.4-0.8 0.9-2.2 0.9-1.4 0-2.3-1-0.9-1.1-0.9-2.9v-0.5q0-2.7 1.2-4.2 1.1-1.4 3.4-1.5zm-1.4 4.5q-0.6 0-1.2 0.4-0.5 0.4-0.7 1v0.5q0 1.2 0.5 1.9 0.6 0.8 1.4 0.8 0.8 0 1.3-0.6 0.5-0.7 0.5-1.7 0-1-0.5-1.6-0.5-0.7-1.3-0.7zm15.2-4.4v0.7l-4.2 9.2h-1.3l4.1-8.9h-5.4v-1zm7.9 2.6q0 0.7-0.4 1.3-0.4 0.6-1.1 0.9 0.8 0.3 1.2 1 0.5 0.6 0.5 1.4 0 1.3-0.9 2.1-0.9 0.7-2.3 0.7-1.4 0-2.3-0.7-0.8-0.8-0.8-2.1 0-0.8 0.4-1.4 0.4-0.7 1.2-1-0.6-0.3-1-0.9-0.4-0.6-0.4-1.3 0-1.3 0.8-2 0.8-0.8 2.1-0.8 1.3 0 2.1 0.8 0.9 0.7 0.9 2zm-1.1 4.6q0-0.8-0.5-1.4-0.5-0.5-1.4-0.5-0.8 0-1.4 0.5-0.5 0.5-0.5 1.4 0 0.8 0.5 1.3 0.5 0.5 1.4 0.5 0.9 0 1.4-0.5 0.5-0.5 0.5-1.3zm-1.9-6.3q-0.7 0-1.2 0.4-0.4 0.5-0.4 1.3 0 0.7 0.4 1.2 0.5 0.5 1.2 0.5 0.8 0 1.2-0.5 0.5-0.5 0.5-1.2 0-0.8-0.5-1.3-0.4-0.4-1.2-0.4zm10 4.6q-0.4 0.5-1 0.8-0.5 0.3-1.2 0.3-0.8 0-1.5-0.4-0.6-0.5-1-1.2-0.3-0.8-0.3-1.7 0-1 0.4-1.8 0.4-0.8 1-1.3 0.7-0.4 1.7-0.4 1.5 0 2.3 1.1 0.9 1.1 0.9 3v0.4q0 2.9-1.2 4.2-1.1 1.4-3.5 1.4h-0.2v-1.1h0.3q1.5 0 2.4-0.8 0.8-0.8 0.9-2.5zm-2 0q0.7 0 1.2-0.4 0.5-0.3 0.8-0.9v-0.5q0-1.3-0.6-2.1-0.5-0.7-1.3-0.7-0.9 0-1.4 0.6-0.5 0.6-0.5 1.7 0 1 0.5 1.7 0.5 0.6 1.3 0.6zm99-3.6c-0.7 0.6-2.3 1.7-4.8 3.5l-0.3 0.3c-0.5 0.3-0.9 0.6-1.2 0.8-0.5 0.3-1 0.4-1.4 0.4-0.4 0-0.9-0.1-1.4-0.4-0.2-0.2-0.6-0.4-1.1-0.8l-0.4-0.3c-2.5-1.8-4.1-3-4.8-3.5 0-0.1-0.1-0.1-0.2 0 0 0-0.1 0-0.1 0.1v6.4c0 0.4 0.2 0.8 0.5 1.1 0.2 0.3 0.6 0.4 1 0.4h13c0.4 0 0.8-0.1 1.1-0.4 0.3-0.3 0.4-0.7 0.4-1.1v-6.4c0-0.1 0-0.1-0.1-0.2-0.1 0-0.1 0-0.2 0.1zm-7.7 4c-0.3 0-0.6-0.1-1-0.4-0.2-0.1-0.5-0.3-0.9-0.7l-0.4-0.2c-2.5-1.8-4.3-3.1-5.2-3.8l-0.2-0.2c-0.2-0.2-0.3-0.3-0.3-0.6v-0.6c0-0.4 0.2-0.8 0.5-1.1 0.2-0.2 0.6-0.4 1-0.4h13c0.4 0 0.8 0.2 1.1 0.4 0.3 0.3 0.4 0.7 0.4 1.1v0.6c0 0.3-0.1 0.4-0.3 0.6l-0.1 0.1c-0.9 0.7-2.7 2-5.3 3.9l-0.3 0.2c-0.4 0.4-0.8 0.6-1 0.7-0.4 0.3-0.7 0.4-1 0.4zm37.1-3.4v7.4h-1.2v-7.4zm-1.4-2q0-0.3 0.2-0.5 0.2-0.2 0.5-0.2 0.4 0 0.6 0.2 0.2 0.2 0.2 0.5 0 0.4-0.2 0.6-0.2 0.2-0.6 0.2-0.3 0-0.5-0.2-0.2-0.2-0.2-0.6zm3.7 2h1.2l0.1 0.9q0.8-1 2.2-1 2.3 0 2.4 2.6v4.9h-1.3v-4.9q0-0.8-0.4-1.2-0.3-0.4-1.1-0.4-0.6 0-1.1 0.4-0.4 0.3-0.7 0.8v5.3h-1.3zm10 7.4h-1.3v-6.4h-1.1v-1h1.1v-0.8q0-1.1 0.7-1.8 0.6-0.6 1.8-0.6 0.4 0 0.8 0.1v1q-0.4-0.1-0.7-0.1-0.6 0-1 0.4-0.3 0.4-0.3 1v0.8h1.6v1h-1.6zm3-3.7v-0.1q0-1.1 0.4-1.9 0.4-0.9 1.2-1.4 0.8-0.4 1.7-0.4 1.6 0 2.5 1 0.9 1 0.9 2.8v0.1q0 1-0.4 1.9-0.4 0.9-1.2 1.3-0.7 0.5-1.7 0.5-1.5 0-2.5-1-0.9-1.1-0.9-2.8zm1.3 0.1q0 1.2 0.5 1.9 0.6 0.8 1.6 0.8 0.9 0 1.5-0.8 0.6-0.7 0.6-2.1 0-1.2-0.6-2-0.6-0.7-1.6-0.7-0.9 0-1.5 0.7-0.5 0.8-0.5 2.2zm18.3 0.2q-0.1 1.6-0.8 2.6-0.8 0.9-2 0.9-1.3 0-1.7-1.1-0.3 0.6-0.8 0.8-0.5 0.3-1 0.3-0.9 0-1.4-0.8-0.5-0.8-0.4-2.2 0.1-1.1 0.5-2 0.4-0.9 1.1-1.4 0.6-0.5 1.3-0.5 0.6 0 1 0.2 0.5 0.1 1 0.5l-0.3 3.8q-0.2 1.6 0.8 1.6 0.8 0 1.3-0.8 0.5-0.7 0.5-1.9 0.1-2.7-1-4.1-1.1-1.4-3.4-1.4-1.4 0-2.4 0.7-1.1 0.7-1.7 2-0.6 1.2-0.7 2.9-0.1 1.7 0.4 3 0.5 1.2 1.5 1.9 1 0.6 2.4 0.6 0.7 0 1.3-0.1 0.6-0.2 1-0.4l0.3 0.8q-0.5 0.2-1.2 0.4-0.7 0.2-1.4 0.2-1.7 0-2.9-0.8-1.2-0.8-1.9-2.2-0.6-1.4-0.5-3.4 0.1-1.9 0.8-3.4 0.8-1.5 2.1-2.3 1.3-0.8 2.9-0.8 1.7 0 3 0.8 1.2 0.7 1.8 2.2 0.6 1.4 0.5 3.4zm-7 0.5q-0.1 1 0.1 1.5 0.3 0.5 0.9 0.5 0.4 0 0.8-0.3 0.4-0.4 0.6-1l0.1-0.1 0.3-3.4q-0.4-0.2-0.9-0.2-0.8 0-1.3 0.8-0.5 0.8-0.6 2.2zm11.9 2q0.7 0 1.2-0.4 0.5-0.4 0.6-1h1.2q0 0.6-0.5 1.2-0.4 0.5-1 0.9-0.7 0.3-1.5 0.3-1.5 0-2.4-1-0.8-1-0.8-2.7v-0.3q0-1 0.3-1.9 0.4-0.8 1.2-1.3 0.7-0.4 1.7-0.4 1.3 0 2.1 0.7 0.8 0.7 0.9 1.9h-1.2q-0.1-0.7-0.6-1.1-0.4-0.5-1.2-0.5-0.9 0-1.5 0.7-0.5 0.7-0.5 2v0.2q0 1.3 0.5 2 0.6 0.7 1.5 0.7zm4.4-2.8v-0.1q0-1.1 0.4-1.9 0.5-0.9 1.2-1.4 0.8-0.4 1.8-0.4 1.5 0 2.4 1 1 1 1 2.8v0.1q0 1-0.5 1.9-0.4 0.9-1.1 1.3-0.8 0.5-1.8 0.5-1.5 0-2.4-1-1-1.1-1-2.8zm1.3 0.1q0 1.2 0.6 1.9 0.5 0.8 1.5 0.8 1 0 1.5-0.8 0.6-0.7 0.6-2.1 0-1.2-0.6-2-0.6-0.7-1.5-0.7-1 0-1.5 0.7-0.6 0.8-0.6 2.2zm7.4-3.8h1.2v0.8q0.8-0.9 2.2-0.9 1.6 0 2.1 1.1 0.4-0.5 1-0.8 0.6-0.3 1.4-0.3 2.4 0 2.5 2.5v5h-1.3v-4.9q0-0.8-0.4-1.2-0.3-0.4-1.2-0.4-0.7 0-1.2 0.4-0.4 0.5-0.5 1.2v4.9h-1.3v-4.9q0-1.6-1.5-1.6-1.3 0-1.7 1.1v5.4h-1.3zm18.9 3.6v0.2q0 1.7-0.8 2.7-0.8 1-2.1 1-1.3 0-2.1-0.8v3.5h-1.3v-10.2h1.2v0.8q0.8-1 2.2-1 1.3 0 2.1 1.1 0.8 1 0.8 2.7zm-1.3 0q0-1.2-0.5-2-0.6-0.7-1.5-0.7-1.1 0-1.7 1v3.6q0.5 1 1.7 1 0.9 0 1.5-0.7 0.5-0.8 0.5-2.2zm9.1 3.8h-1.3q-0.1-0.2-0.2-0.8-0.9 0.9-2.1 0.9-1.1 0-1.8-0.6-0.7-0.6-0.7-1.6 0-1.1 0.9-1.8 0.9-0.6 2.5-0.6h1.2v-0.6q0-0.6-0.4-1-0.4-0.4-1.2-0.4-0.7 0-1.1 0.3-0.5 0.4-0.5 0.8h-1.2q0-0.5 0.3-1 0.4-0.5 1.1-0.9 0.7-0.3 1.5-0.3 1.3 0 2 0.7 0.7 0.6 0.8 1.7v3.5q0 1 0.2 1.6zm-3.4-1q0.6 0 1.1-0.3 0.5-0.3 0.8-0.8v-1.5h-1q-2.3 0-2.3 1.3 0 0.6 0.4 1 0.4 0.3 1 0.3zm5.5-6.4h1.2v0.9q0.9-1.1 2.2-1.1 2.4 0 2.4 2.7v4.9h-1.3v-4.9q0-0.8-0.3-1.2-0.4-0.4-1.1-0.4-0.7 0-1.1 0.3-0.5 0.4-0.8 0.9v5.3h-1.2zm8.6 0l1.9 5.5 1.7-5.5h1.4l-3 8.5q-0.7 1.9-2.2 1.9l-0.3-0.1-0.4-0.1v-1h0.3q0.7 0 1-0.2 0.4-0.3 0.6-1l0.3-0.7-2.6-7.3zm5.6 6.7q0-0.3 0.2-0.5 0.2-0.3 0.6-0.3 0.4 0 0.6 0.3 0.2 0.2 0.2 0.5 0 0.3-0.2 0.5-0.2 0.2-0.6 0.2-0.4 0-0.6-0.2-0.2-0.2-0.2-0.5zm7-0.2q0.7 0 1.2-0.4 0.5-0.4 0.6-1.1h1.2q-0.1 0.7-0.5 1.2-0.4 0.6-1.1 1-0.6 0.3-1.4 0.3-1.5 0-2.4-1-0.9-1-0.9-2.8v-0.2q0-1.1 0.4-1.9 0.4-0.8 1.2-1.3 0.7-0.5 1.7-0.5 1.3 0 2.1 0.8 0.8 0.7 0.9 1.9h-1.2q-0.1-0.7-0.6-1.2-0.5-0.4-1.2-0.4-0.9 0-1.5 0.7-0.5 0.7-0.5 2v0.2q0 1.3 0.5 2 0.5 0.7 1.5 0.7zm4.4-2.8v-0.1q0-1.1 0.4-2 0.5-0.8 1.2-1.3 0.8-0.5 1.8-0.5 1.5 0 2.4 1.1 0.9 1 0.9 2.8v0.1q0 1-0.4 1.9-0.4 0.8-1.2 1.3-0.7 0.5-1.7 0.5-1.5 0-2.5-1-0.9-1.1-0.9-2.8zm1.3 0.1q0 1.2 0.5 1.9 0.6 0.8 1.6 0.8 0.9 0 1.5-0.8 0.6-0.7 0.6-2.1 0-1.2-0.6-2-0.6-0.7-1.5-0.7-1 0-1.6 0.7-0.5 0.8-0.5 2.2zm7.4-3.8h1.2v0.8q0.8-1 2.2-1 1.5 0 2.1 1.2 0.4-0.5 1-0.8 0.5-0.4 1.4-0.4 2.4 0 2.4 2.6v5h-1.2v-4.9q0-0.8-0.4-1.2-0.4-0.4-1.2-0.4-0.7 0-1.2 0.4-0.4 0.4-0.5 1.2v4.9h-1.3v-4.9q0-1.6-1.6-1.6-1.2 0-1.7 1.1v5.4h-1.2z"/>
		</g>
	</g>
</svg>