<svg version="1.2" xmlns="http://www.w3.org/2000/svg" viewBox="0 0 16 16" width="16" height="16">
	<title>menu</title>
	<style>
		.s0 { fill: #333333 } 
	</style>
	<g id="menu">
		<g id="right">
			<path id="-e-search" class="s0" aria-label=""  d="m14.8 12.8c0.1 0.2 0.2 0.4 0.2 0.6 0 0.2-0.1 0.4-0.2 0.5l-0.9 0.9c-0.1 0.1-0.3 0.2-0.5 0.2-0.2 0-0.4-0.1-0.6-0.2l-3.1-3.1c-0.1-0.2-0.2-0.4-0.2-0.6v-0.5c-1.2 0.9-2.5 1.4-4 1.4-1.2 0-2.3-0.3-3.3-0.9-1-0.6-1.7-1.3-2.3-2.3-0.6-1-0.9-2.1-0.9-3.3 0-1.2 0.3-2.3 0.9-3.3 0.6-1 1.3-1.7 2.3-2.3 1-0.6 2.1-0.9 3.3-0.9 1.2 0 2.3 0.3 3.3 0.9 1 0.6 1.7 1.3 2.3 2.3 0.6 1 0.9 2.1 0.9 3.3 0 1.5-0.5 2.8-1.4 4h0.5c0.2 0 0.4 0.1 0.6 0.2zm-9.3-3.3c0.7 0 1.4-0.2 2-0.6 0.6-0.3 1.1-0.8 1.4-1.4 0.4-0.6 0.6-1.3 0.6-2 0-0.8-0.2-1.4-0.6-2-0.3-0.7-0.8-1.1-1.4-1.5-0.6-0.3-1.3-0.5-2-0.5-0.8 0-1.4 0.2-2 0.5-0.7 0.4-1.1 0.8-1.5 1.5-0.3 0.6-0.5 1.2-0.5 2 0 0.7 0.2 1.4 0.5 2 0.4 0.6 0.8 1.1 1.5 1.4 0.6 0.4 1.2 0.6 2 0.6z"/>
		</g>
	</g>
</svg>